<?xml version="1.0" encoding="utf-8"?>
<!-- Generator: Adobe Illustrator 19.2.0, SVG Export Plug-In . SVG Version: 6.00 Build 0)  -->
<svg version="1.1" id="Layer_1" xmlns="http://www.w3.org/2000/svg" xmlns:xlink="http://www.w3.org/1999/xlink" x="0px" y="0px"
	 viewBox="0 0 500 500" style="enable-background:new 0 0 500 500;" xml:space="preserve">
<style type="text/css">
	.st0{fill:#ECF4F7;}
	.st1{fill:#1C1D21;}
	.st2{fill:#83E1E5;}
	.st3{fill:#AAB1BA;}
	.st4{fill:none;stroke:#1C1D21;stroke-width:10;stroke-linecap:round;stroke-linejoin:round;stroke-miterlimit:10;}
	.st5{fill:#FDDF7F;}
	.st6{fill:#FFFFFF;}
</style>
<g>
	<g>
		<g>
			<g>
				<path class="st5" d="M263.8,118.5H250V50.7h-67.7v13.8c0,17.6-14.3,31.9-31.9,31.9c-17.6,0-31.9-14.3-31.9-31.9V50.7H50.7v67.7
					H36.9C19.3,118.5,5,132.8,5,150.4s14.3,31.9,31.9,31.9h13.8V250h67.7v-13.8c0-17.6,14.3-31.9,31.9-31.9
					c17.6,0,31.9,14.3,31.9,31.9V250H250v-67.7h13.8c17.6,0,31.9-14.3,31.9-31.9S281.5,118.5,263.8,118.5z"/>
			</g>
		</g>
		<g>
			<g>
				<path class="st0" d="M381.5,263.8V250h67.7v-67.7h-13.8c-17.6,0-31.9-14.3-31.9-31.9c0-17.6,14.3-31.9,31.9-31.9h13.8V50.7
					h-67.7V36.9c0-17.6-14.3-31.9-31.9-31.9c-17.6,0-31.9,14.3-31.9,31.9v13.8H250v67.7h13.8c17.6,0,31.9,14.3,31.9,31.9
					c0,17.6-14.3,31.9-31.9,31.9H250V250h67.7v13.8c0,17.6,14.3,31.9,31.9,31.9C367.2,295.7,381.5,281.5,381.5,263.8z"/>
			</g>
		</g>
		<g>
			<g>
				<path class="st3" d="M118.5,236.2V250H50.7v67.7h13.8c17.6,0,31.9,14.3,31.9,31.9c0,17.6-14.3,31.9-31.9,31.9H50.7v67.7h67.7
					v13.8c0,17.6,14.3,31.9,31.9,31.9c17.6,0,31.9-14.3,31.9-31.9v-13.8H250v-67.7h-13.8c-17.6,0-31.9-14.3-31.9-31.9
					c0-17.6,14.3-31.9,31.9-31.9H250V250h-67.7v-13.8c0-17.6-14.3-31.9-31.9-31.9C132.8,204.3,118.5,218.5,118.5,236.2z"/>
			</g>
		</g>
		<g>
			<g>
				<path class="st2" d="M236.2,381.5H250v67.7h67.7v-13.8c0-17.6,14.3-31.9,31.9-31.9c17.6,0,31.9,14.3,31.9,31.9v13.8h67.7v-67.7
					h13.8c17.6,0,31.9-14.3,31.9-31.9s-14.3-31.9-31.9-31.9h-13.8V250h-67.7v13.8c0,17.6-14.3,31.9-31.9,31.9
					c-17.6,0-31.9-14.3-31.9-31.9V250H250v67.7h-13.8c-17.6,0-31.9,14.3-31.9,31.9S218.5,381.5,236.2,381.5z"/>
			</g>
		</g>
	</g>
	<g>
		<g>
			<g>
				<path class="st1" d="M50.7,69c-2.8,0-5-2.2-5-5V50.7c0-2.8,2.2-5,5-5H67c2.8,0,5,2.2,5,5s-2.2,5-5,5H55.7V64
					C55.7,66.8,53.5,69,50.7,69z"/>
			</g>
		</g>
		<g>
			<g>
				<path class="st1" d="M250,255h-67.7c-2.8,0-5-2.2-5-5v-13.8c0-14.8-12.1-26.9-26.9-26.9c-14.8,0-26.9,12.1-26.9,26.9V250
					c0,2.8-2.2,5-5,5H50.7c-2.8,0-5-2.2-5-5v-30c0-2.8,2.2-5,5-5c2.8,0,5,2.2,5,5v25h57.7v-8.8c0-20.3,16.6-36.9,36.9-36.9
					c20.3,0,36.9,16.6,36.9,36.9v8.8H245v-62.7c0-2.8,2.2-5,5-5h13.8c14.8,0,26.9-12.1,26.9-26.9c0-14.8-12.1-26.9-26.9-26.9H250
					c-2.8,0-5-2.2-5-5V55.7h-57.7v8.8c0,20.3-16.6,36.9-36.9,36.9c-20.3,0-36.9-16.6-36.9-36.9v-8.8H90.3c-2.8,0-5-2.2-5-5
					s2.2-5,5-5h28.2c2.8,0,5,2.2,5,5v13.8c0,14.8,12.1,26.9,26.9,26.9c14.8,0,26.9-12.1,26.9-26.9V50.7c0-2.8,2.2-5,5-5H250
					c2.8,0,5,2.2,5,5v62.7h8.8c20.3,0,36.9,16.6,36.9,36.9s-16.6,36.9-36.9,36.9H255V250C255,252.8,252.8,255,250,255z"/>
			</g>
		</g>
		<g>
			<g>
				<path class="st1" d="M50.7,187.3H36.9C16.6,187.3,0,170.7,0,150.4s16.6-36.9,36.9-36.9h8.8V86.7c0-2.8,2.2-5,5-5
					c2.8,0,5,2.2,5,5v31.8c0,2.8-2.2,5-5,5H36.9c-14.8,0-26.9,12.1-26.9,26.9c0,14.8,12.1,26.9,26.9,26.9h13.8c2.8,0,5,2.2,5,5
					C55.7,185,53.5,187.3,50.7,187.3z"/>
			</g>
		</g>
	</g>
	<g>
		<g>
			<g>
				<path class="st1" d="M449.3,454.3H433c-2.8,0-5-2.2-5-5c0-2.8,2.2-5,5-5h11.3V436c0-2.8,2.2-5,5-5c2.8,0,5,2.2,5,5v13.3
					C454.3,452,452,454.3,449.3,454.3z"/>
			</g>
		</g>
		<g>
			<g>
				<path class="st1" d="M409.8,454.3h-28.2c-2.8,0-5-2.2-5-5v-13.8c0-14.8-12.1-26.9-26.9-26.9s-26.9,12.1-26.9,26.9v13.8
					c0,2.8-2.2,5-5,5H250c-2.8,0-5-2.2-5-5v-62.7h-8.8c-20.3,0-36.9-16.6-36.9-36.9s16.6-36.9,36.9-36.9h8.8V250c0-2.8,2.2-5,5-5
					h67.7c2.8,0,5,2.2,5,5v13.8c0,14.8,12.1,26.9,26.9,26.9s26.9-12.1,26.9-26.9V250c0-2.8,2.2-5,5-5h67.7c2.8,0,5,2.2,5,5v30
					c0,2.8-2.2,5-5,5c-2.8,0-5-2.2-5-5v-25h-57.7v8.8c0,20.3-16.6,36.9-36.9,36.9s-36.9-16.6-36.9-36.9V255H255v62.7
					c0,2.8-2.2,5-5,5h-13.8c-14.8,0-26.9,12.1-26.9,26.9s12.1,26.9,26.9,26.9H250c2.8,0,5,2.2,5,5v62.7h57.7v-8.8
					c0-20.3,16.6-36.9,36.9-36.9s36.9,16.6,36.9,36.9v8.8h23.2c2.8,0,5,2.2,5,5C414.8,452,412.5,454.3,409.8,454.3z"/>
			</g>
		</g>
		<g>
			<g>
				<path class="st1" d="M449.3,418.3c-2.8,0-5-2.2-5-5v-31.8c0-2.8,2.2-5,5-5h13.8c14.8,0,26.9-12.1,26.9-26.9
					s-12.1-26.9-26.9-26.9h-13.8c-2.8,0-5-2.2-5-5c0-2.8,2.2-5,5-5h13.8c20.3,0,36.9,16.6,36.9,36.9s-16.6,36.9-36.9,36.9h-8.8v26.8
					C454.3,416.1,452,418.3,449.3,418.3z"/>
			</g>
		</g>
	</g>
	<g>
		<g>
			<path class="st1" d="M349.6,300.7c-20.3,0-36.9-16.6-36.9-36.9V255H250c-2.8,0-5-2.2-5-5v-67.7c0-2.8,2.2-5,5-5h13.8
				c14.8,0,26.9-12.1,26.9-26.9c0-14.8-12.1-26.9-26.9-26.9H250c-2.8,0-5-2.2-5-5V50.7c0-2.8,2.2-5,5-5h62.7v-8.8
				c0-20.3,16.6-36.9,36.9-36.9s36.9,16.6,36.9,36.9v8.8h62.7c2.8,0,5,2.2,5,5v67.7c0,2.8-2.2,5-5,5h-13.8
				c-14.8,0-26.9,12.1-26.9,26.9c0,14.8,12.1,26.9,26.9,26.9h13.8c2.8,0,5,2.2,5,5V250c0,2.8-2.2,5-5,5h-62.7v8.8
				C386.5,284.2,370,300.7,349.6,300.7z M255,245h62.7c2.8,0,5,2.2,5,5v13.8c0,14.8,12.1,26.9,26.9,26.9s26.9-12.1,26.9-26.9V250
				c0-2.8,2.2-5,5-5h62.7v-57.7h-8.8c-20.3,0-36.9-16.6-36.9-36.9s16.6-36.9,36.9-36.9h8.8V55.7h-62.7c-2.8,0-5-2.2-5-5V36.9
				c0-14.8-12.1-26.9-26.9-26.9s-26.9,12.1-26.9,26.9v13.8c0,2.8-2.2,5-5,5H255v57.7h8.8c20.3,0,36.9,16.6,36.9,36.9
				s-16.6,36.9-36.9,36.9H255V245z"/>
		</g>
	</g>
	<g>
		<g>
			<path class="st1" d="M150.4,500c-20.3,0-36.9-16.6-36.9-36.9v-8.8H50.7c-2.8,0-5-2.2-5-5v-67.7c0-2.8,2.2-5,5-5h13.8
				c14.8,0,26.9-12.1,26.9-26.9s-12.1-26.9-26.9-26.9H50.7c-2.8,0-5-2.2-5-5V250c0-2.8,2.2-5,5-5h62.7v-8.8
				c0-20.3,16.6-36.9,36.9-36.9s36.9,16.6,36.9,36.9v8.8H250c2.8,0,5,2.2,5,5v67.7c0,2.8-2.2,5-5,5h-13.8
				c-14.8,0-26.9,12.1-26.9,26.9s12.1,26.9,26.9,26.9H250c2.8,0,5,2.2,5,5v67.7c0,2.8-2.2,5-5,5h-62.7v8.8
				C187.3,483.4,170.7,500,150.4,500z M55.7,444.3h62.7c2.8,0,5,2.2,5,5v13.8c0,14.8,12.1,26.9,26.9,26.9
				c14.8,0,26.9-12.1,26.9-26.9v-13.8c0-2.8,2.2-5,5-5H245v-57.7h-8.8c-20.3,0-36.9-16.6-36.9-36.9s16.6-36.9,36.9-36.9h8.8V255
				h-62.7c-2.8,0-5-2.2-5-5v-13.8c0-14.8-12.1-26.9-26.9-26.9c-14.8,0-26.9,12.1-26.9,26.9V250c0,2.8-2.2,5-5,5H55.7v57.7h8.8
				c20.3,0,36.9,16.6,36.9,36.9s-16.6,36.9-36.9,36.9h-8.8V444.3z"/>
		</g>
	</g>
</g>
</svg>
